<svg width="173" height="109" viewBox="0 0 173 109" fill="none" xmlns="http://www.w3.org/2000/svg">
<path fill-rule="evenodd" clip-rule="evenodd" d="M26.8616 1.97826C12.0263 2.15628 0.144268 14.327 0.322287 29.1623C0.500306 43.9976 12.671 55.8796 27.5063 55.7016C48.5637 55.4489 65.4569 74.3474 79.3461 90.1768C84.5659 96.1257 91.1926 101.002 98.9942 104.245C126.257 115.576 157.544 102.661 168.875 75.3985C180.207 48.1356 167.292 16.8487 140.029 5.51731C134.109 3.05664 127.999 1.73934 121.944 1.46404C119.055 1.33266 116.163 1.0517 113.272 0.965296C112.892 0.953951 112.511 0.9505 112.127 0.955099L26.8616 1.97826Z" fill="#FBC71D"/>
</svg>
