<svg width="415" height="138" viewBox="0 0 415 138" fill="none" xmlns="http://www.w3.org/2000/svg">
<path d="M19.3261 88.3345H12.3513V67.2383H19.1569C23.8067 67.2383 25.9867 70.7256 25.9867 76.9938C25.9867 85.6028 23.3953 88.3345 19.1569 88.3345H19.3261ZM12.3513 36.4115H18.9388C22.3535 36.4115 25.0903 38.9236 25.0903 45.8744C25.0903 52.8982 21.8937 55.3373 18.9388 55.3373H12.3513V36.412V36.4115ZM30.6118 60.5558V60.5071C33.3245 58.605 37.6838 55.3368 37.6838 44.8009C37.6838 31.2162 30.5876 25.0464 20.9732 25.0464H0V99.6752H20.8518C32.6703 99.6752 38.4346 90.9197 38.4346 77.8965C38.4346 65.7754 33.6634 62.4098 30.6123 60.5564L30.6118 60.5558ZM60.6908 36.4115H67.2784C70.693 36.4115 73.4299 38.9236 73.4299 45.8744C73.4299 52.8982 70.2575 55.3373 67.2784 55.3373H60.6908V36.412V36.4115ZM85.9261 74.9701C85.9261 65.3854 82.9712 62.678 78.9514 60.3611V60.5077C81.664 58.6056 85.9745 55.3373 85.9745 44.8014C85.9745 31.2168 78.9025 25.047 69.3122 25.047H48.339V99.6758H61.2231V67.2145H67.7134C71.128 67.2145 73.5502 70.1166 73.5502 76.6775V99.6514H85.3687L85.9014 74.7267L85.9256 74.9706L85.9261 74.9701ZM109.563 17.9989C109.563 12.365 114.746 11.6576 117.628 11.6576C120.485 11.6576 125.668 12.365 125.668 17.9989V55.3373H109.563V18.0232L109.563 17.9989ZM117.603 0C112.372 0 97.1866 1.1709 97.1866 16.2915V99.7001H109.538V67.2389H125.643V99.7001H137.995V16.2915C138.019 1.14602 122.834 0 117.603 0ZM174.54 25.0713V83.9452C174.54 86.9451 172.046 88.9446 168.34 88.9446C164.635 88.9446 162.189 86.9446 162.189 83.9452V25.0713L150.395 25.0957V85.9203C150.395 97.5049 162.165 100.578 168.655 100.578C175.097 100.578 186.916 97.4805 186.916 85.8959V25.0713H174.54ZM223.413 99.7001V40.8506C223.413 37.8506 220.918 35.8512 217.237 35.8512C213.532 35.8512 211.085 37.8512 211.085 40.8506V99.7001H199.267V38.8755C199.267 27.2909 211.037 24.2179 217.528 24.2179C223.97 24.2179 235.788 27.3152 235.788 38.8998V99.7001H223.413Z" fill="white"/>
<path d="M262.643 26.624C258.422 26.624 255 30.0456 255 34.2663V92.3475C255 96.5682 258.422 99.9897 262.643 99.9897C266.865 99.9897 270.287 96.5682 270.287 92.3475V34.2663C270.287 30.0456 266.865 26.624 262.643 26.624Z" fill="#FBC71D"/>
<path fill-rule="evenodd" clip-rule="evenodd" d="M312.07 26.624C291.808 26.624 275.382 43.0475 275.382 63.3069C275.382 83.5663 291.808 99.9897 312.07 99.9897C326.675 99.9897 339.287 91.4565 345.191 79.1043C351.095 91.4565 363.707 99.9897 378.312 99.9897C398.574 99.9897 415 83.5663 415 63.3069C415 43.0475 398.574 26.624 378.312 26.624C363.707 26.624 351.095 35.1573 345.191 47.5095C339.287 35.1573 326.675 26.624 312.07 26.624ZM289.65 63.3069C289.65 75.6876 299.688 85.7242 312.07 85.7242C324.453 85.7242 334.49 75.6876 334.49 63.3069C334.49 50.9261 324.453 40.8896 312.07 40.8896C299.688 40.8896 289.65 50.9261 289.65 63.3069ZM355.892 63.3069C355.892 75.6876 365.93 85.7242 378.312 85.7242C390.695 85.7242 400.732 75.6876 400.732 63.3069C400.732 50.9261 390.695 40.8896 378.312 40.8896C365.93 40.8896 355.892 50.9261 355.892 63.3069Z" fill="#FBC71D"/>
<path d="M318.299 120.82L321.801 109.558H328.256L319.86 132.281L319.361 133.413C318.014 136.22 315.793 137.624 312.697 137.624C311.823 137.624 310.934 137.498 310.032 137.247V132.897L310.948 132.916C312.086 132.916 312.933 132.751 313.489 132.42C314.058 132.089 314.502 131.539 314.821 130.771L315.529 129.003L306.975 109.558H313.451L318.299 120.82Z" fill="#FBC71D"/>
<path d="M340.708 131.447C337.404 131.447 334.711 130.48 332.629 128.547C330.56 126.613 329.526 124.038 329.526 120.82V120.264C329.526 118.105 329.964 116.179 330.838 114.484C331.713 112.775 332.948 111.465 334.545 110.551C336.155 109.624 337.987 109.16 340.042 109.16C343.124 109.16 345.546 110.087 347.309 111.941C349.086 113.795 349.975 116.424 349.975 119.827V122.171H335.627C335.822 123.574 336.405 124.7 337.377 125.547C338.362 126.395 339.605 126.819 341.104 126.819C343.422 126.819 345.234 126.017 346.539 124.415L349.496 127.573C348.594 128.792 347.372 129.745 345.831 130.434C344.29 131.109 342.582 131.447 340.708 131.447ZM340.021 113.808C338.827 113.808 337.856 114.192 337.106 114.96C336.37 115.728 335.898 116.827 335.69 118.258H344.061V117.801C344.033 116.53 343.672 115.55 342.978 114.861C342.284 114.159 341.298 113.808 340.021 113.808Z" fill="#FBC71D"/>
<path d="M366.467 131.049C366.189 130.533 365.988 129.891 365.863 129.123C364.405 130.672 362.51 131.447 360.178 131.447C357.971 131.447 356.139 130.837 354.681 129.619C353.237 128.401 352.515 126.865 352.515 125.011C352.515 122.733 353.397 120.985 355.16 119.767C356.937 118.549 359.498 117.933 362.844 117.92H365.613V116.688C365.613 115.695 365.342 114.901 364.801 114.305C364.274 113.709 363.434 113.411 362.281 113.411C361.268 113.411 360.47 113.643 359.887 114.106C359.318 114.57 359.033 115.205 359.033 116.013H353.015C353.015 114.768 353.418 113.616 354.223 112.557C355.028 111.498 356.166 110.67 357.638 110.074C359.109 109.465 360.761 109.16 362.594 109.16C365.37 109.16 367.571 109.829 369.195 111.167C370.833 112.491 371.652 114.358 371.652 116.768V126.084C371.666 128.123 371.964 129.666 372.547 130.712V131.049H366.467ZM361.49 127.057C362.379 127.057 363.198 126.872 363.947 126.501C364.697 126.117 365.252 125.607 365.613 124.971V121.277H363.364C360.352 121.277 358.748 122.27 358.554 124.256L358.533 124.594C358.533 125.309 358.797 125.898 359.324 126.362C359.852 126.825 360.574 127.057 361.49 127.057Z" fill="#FBC71D"/>
<path d="M388.935 114.941C388.116 114.835 387.394 114.782 386.77 114.782C384.493 114.782 383.001 115.517 382.293 116.986V131.049H376.275V109.558H381.96L382.126 112.12C383.334 110.147 385.007 109.16 387.145 109.16C387.811 109.16 388.436 109.246 389.019 109.419L388.935 114.941Z" fill="#FBC71D"/>
<path d="M404.053 125.11C404.053 124.409 403.685 123.859 402.949 123.462C402.228 123.051 401.061 122.687 399.451 122.369C394.093 121.297 391.413 119.125 391.413 115.854C391.413 113.947 392.239 112.358 393.891 111.087C395.557 109.803 397.73 109.16 400.409 109.16C403.269 109.16 405.552 109.803 407.26 111.087C408.981 112.372 409.842 114.04 409.842 116.093H403.824C403.824 115.272 403.546 114.596 402.991 114.067C402.436 113.524 401.568 113.252 400.388 113.252C399.375 113.252 398.59 113.471 398.035 113.908C397.48 114.345 397.202 114.901 397.202 115.576C397.202 116.212 397.515 116.728 398.139 117.125C398.778 117.509 399.847 117.847 401.346 118.138C402.845 118.417 404.109 118.734 405.136 119.092C408.315 120.204 409.904 122.131 409.904 124.872C409.904 126.832 409.023 128.421 407.26 129.639C405.497 130.844 403.22 131.447 400.43 131.447C398.542 131.447 396.862 131.129 395.391 130.493C393.933 129.844 392.788 128.964 391.955 127.851C391.122 126.726 390.705 125.514 390.705 124.217H396.411C396.466 125.236 396.862 126.017 397.598 126.56C398.334 127.103 399.319 127.375 400.555 127.375C401.707 127.375 402.575 127.169 403.158 126.759C403.755 126.335 404.053 125.786 404.053 125.11Z" fill="#FBC71D"/>
</svg>
