<svg width="497" height="212" viewBox="0 0 497 212" fill="none" xmlns="http://www.w3.org/2000/svg">
<path d="M40.6886 185.977H26.004V141.562H40.3324C50.1221 141.562 54.7116 148.904 54.7116 162.101C54.7116 180.226 49.2559 185.977 40.3324 185.977H40.6886ZM26.004 76.6598H39.8733C47.0624 76.6598 52.8245 81.9488 52.8245 96.5828C52.8245 111.37 46.0945 116.506 39.8733 116.506H26.004V76.6609V76.6598ZM64.4493 127.493V127.39C70.1605 123.386 79.3384 116.505 79.3384 94.3225C79.3384 65.7219 64.3984 52.7321 44.1564 52.7321H0V209.854H43.9009C68.7833 209.854 80.9192 191.42 80.9192 164.001C80.9192 138.482 70.874 131.396 64.4504 127.494L64.4493 127.493ZM127.777 76.6598H141.646C148.835 76.6598 154.597 81.9488 154.597 96.5828C154.597 111.37 147.918 116.506 141.646 116.506H127.777V76.6609V76.6598ZM180.907 157.84C180.907 137.661 174.685 131.961 166.222 127.083V127.391C171.933 123.387 181.008 116.506 181.008 94.3237C181.008 65.723 166.119 52.7333 145.928 52.7333H101.772V209.855H128.897V141.512H142.562C149.751 141.512 154.851 147.622 154.851 161.435V209.804H179.733L180.855 157.328L180.905 157.841L180.907 157.84ZM230.671 37.8943C230.671 26.033 241.583 24.5437 247.65 24.5437C253.667 24.5437 264.578 26.033 264.578 37.8943V116.506H230.67V37.9456L230.671 37.8943ZM247.598 0C236.585 0 204.614 2.46518 204.614 34.2996V209.906H230.618V141.563H264.526V209.906H290.53V34.2996C290.581 2.4128 258.611 0 247.598 0ZM367.472 52.7845V176.736C367.472 183.052 362.22 187.262 354.42 187.262C346.619 187.262 341.468 183.051 341.468 176.736V52.7845L316.637 52.8357V180.894C316.637 205.284 341.418 211.754 355.082 211.754C368.645 211.754 393.527 205.233 393.527 180.843V52.7845H367.472ZM470.367 209.906V86.0058C470.367 79.6897 465.115 75.4801 457.365 75.4801C449.564 75.4801 444.414 79.6909 444.414 86.0058V209.906H419.531V81.8475C419.531 57.4575 444.312 50.9877 457.977 50.9877C471.539 50.9877 496.422 57.5088 496.422 81.8987V209.906H470.367Z" fill="white"/>
</svg>
