<svg width="1920" height="819" viewBox="0 0 1920 819" fill="none" xmlns="http://www.w3.org/2000/svg">
<path d="M157.37 719.303H100.575V547.518H155.993C193.856 547.518 211.607 575.915 211.607 626.957C211.607 697.059 190.506 719.303 155.993 719.303H157.37ZM100.575 296.497H154.217C182.022 296.497 204.308 316.953 204.308 373.553C204.308 430.747 178.279 450.609 154.217 450.609H100.575V296.501V296.497ZM249.269 493.103V492.706C271.358 477.217 306.856 450.604 306.856 364.811C306.856 254.192 249.072 203.952 170.783 203.952H0V811.65H169.795C266.032 811.65 312.969 740.354 312.969 634.307C312.969 535.605 274.118 508.199 249.273 493.107L249.269 493.103ZM494.2 296.497H547.842C575.647 296.497 597.933 316.953 597.933 373.553C597.933 430.747 572.1 450.609 547.842 450.609H494.2V296.501V296.497ZM699.689 610.477C699.689 532.43 675.627 510.384 642.894 491.517V492.711C664.983 477.222 700.082 450.609 700.082 364.815C700.082 254.197 642.496 203.956 564.403 203.956H393.62V811.654H498.534V547.324H551.384C579.189 547.324 598.912 570.956 598.912 624.38V811.456H695.149L699.487 608.495L699.684 610.481L699.689 610.477ZM892.163 146.564C892.163 100.688 934.364 94.9274 957.831 94.9274C981.101 94.9274 1023.3 100.688 1023.3 146.564V450.609H892.158V146.762L892.163 146.564ZM957.63 0C915.035 0 791.382 9.53457 791.382 132.66V811.852H891.957V547.522H1023.1V811.852H1123.68V132.66C1123.87 9.33199 1000.22 0 957.63 0ZM1421.27 204.154V683.561C1421.27 707.989 1400.95 724.271 1370.78 724.271C1340.61 724.271 1320.69 707.985 1320.69 683.561V204.154L1224.65 204.353V699.644C1224.65 793.977 1320.49 819 1373.34 819C1425.8 819 1522.04 793.779 1522.04 699.446V204.154H1421.27ZM1819.23 811.852V332.644C1819.23 308.216 1798.91 291.934 1768.94 291.934C1738.77 291.934 1718.85 308.22 1718.85 332.644V811.852H1622.61V316.561C1622.61 222.228 1718.46 197.205 1771.31 197.205C1823.76 197.205 1920 222.426 1920 316.759V811.852H1819.23Z" fill="#F8F8F8"/>
</svg>
